<svg xmlns="http://www.w3.org/2000/svg" viewBox="0 0 760 1000" width="760" height="1000"><title>Åkande, hvid nøkkerose</title><desc>Sprite til 2D-animation: hvid nøkkerose (Nymphaea alba) med flydeblad og blomst ved vandoverfladen.</desc>
<g transform="translate(340,962) scale(1,-1)">
<defs><linearGradient id="blad3" x1="0" y1="54" x2="0" y2="-54" gradientUnits="userSpaceOnUse"><stop offset="0" stop-color="#3C7A34"/><stop offset="1" stop-color="#6BA544"/></linearGradient><linearGradient id="lille3" x1="0" y1="34" x2="0" y2="-34" gradientUnits="userSpaceOnUse"><stop offset="0" stop-color="#3C7A34"/><stop offset="1" stop-color="#6BA544"/></linearGradient></defs>
<g fill="none" stroke="#17211F" stroke-width="6" stroke-linejoin="round" stroke-linecap="round">
<path d="M -7,-1 C -13,24 -19,96 -27,149 C -34,202 -43,261 -53,319 C -63,377 -75,442 -88,499 C -100,555 -115,614 -126,659 C -138,704 -148,739 -156,769 C -164,798 -175,825 -177,837 C -178,848 -172,850 -167,839 C -162,829 -154,801 -146,771 C -137,742 -127,706 -115,661 C -103,616 -88,558 -75,501 C -63,445 -51,380 -40,321 C -30,263 -21,204 -13,151 C -5,98 7,26 7,1 C 8,-24 -2,-26 -7,-1 Z" fill="#3A7040"/>
<path d="M -8,2 C -6,27 11,98 20,151 C 30,205 42,263 50,321 C 58,379 62,444 67,501 C 72,557 75,616 79,661 C 83,706 87,740 91,771 C 95,802 99,834 103,846 C 107,858 115,857 115,844 C 115,831 107,800 104,769 C 100,738 96,704 92,659 C 89,614 86,556 82,499 C 77,443 72,377 65,319 C 57,261 46,202 36,149 C 27,95 16,23 8,-2 C 1,-26 -10,-24 -8,2 Z" fill="#3E7A46"/>
<path d="M -10,-1 C -15,24 -18,96 -21,149 C -24,203 -27,261 -30,320 C -32,378 -34,443 -36,500 C -37,556 -38,617 -39,660 C -39,703 -38,732 -37,760 C -37,788 -38,818 -36,830 C -33,842 -24,842 -22,830 C -19,818 -22,788 -22,760 C -22,732 -23,703 -23,660 C -22,617 -21,557 -19,500 C -17,444 -14,379 -12,320 C -9,262 -6,204 -2,151 C 1,97 11,26 10,1 C 9,-24 -5,-26 -10,-1 Z" fill="#46884A"/>
<path d="M -70,852 L -79,857 L -91,861 L -105,865 L -121,868 L -139,870 L -157,872 L -176,872 L -195,871 L -213,870 L -230,867 L -246,864 L -259,859 L -269,855 L -277,849 L -282,844 L -284,838 L -282,832 L -277,827 L -269,821 L -259,817 L -246,812 L -230,809 L -213,806 L -195,805 L -176,804 L -157,804 L -139,806 L -121,808 L -105,811 L -91,815 L -79,819 L -70,824 L -172,838 Z" fill="url(#lille3)"/>
<path d="M -172,838 L -77,852 M -172,838 L -120,866 M -172,838 L -180,870 M -172,838 L -238,863 M -172,838 L -272,847 M -172,838 L -272,829 M -172,838 L -238,813 M -172,838 L -180,806 M -172,838 L -120,810 M -172,838 L -77,824" stroke-width="3" opacity=".30"/>
<path d="M 145,852 L 129,860 L 109,867 L 85,873 L 57,878 L 28,882 L -4,884 L -36,884 L -68,883 L -99,880 L -128,876 L -154,871 L -176,864 L -194,856 L -208,848 L -216,839 L -219,830 L -216,821 L -208,812 L -194,804 L -176,796 L -154,789 L -128,784 L -99,780 L -68,777 L -36,776 L -4,776 L 28,778 L 57,782 L 85,787 L 109,793 L 129,800 L 145,808 L -29,830 Z" fill="url(#blad3)"/>
<path d="M -29,830 L 131,853 M -29,830 L 59,874 M -29,830 L -43,881 M -29,830 L -141,870 M -29,830 L -199,845 M -29,830 L -199,815 M -29,830 L -141,790 M -29,830 L -43,779 M -29,830 L 59,786 M -29,830 L 131,807" stroke-width="3" opacity=".30"/>
<path d="M 116,839 C 120,835 132,827 141,826 C 149,825 160,830 167,833 C 173,836 179,841 179,845 C 179,849 173,854 167,857 C 160,860 149,865 141,864 C 132,863 120,855 116,851 C 112,847 112,843 116,839 Z" fill="#FFFFFF" stroke-width="5"/>
<path d="M 118,844 C 124,843 138,842 146,846 C 154,850 160,860 164,866 C 168,872 170,880 168,883 C 166,886 158,887 151,886 C 144,885 132,883 126,878 C 119,873 113,859 112,854 C 111,848 113,845 118,844 Z" fill="#FFFFFF" stroke-width="5"/>
<path d="M 117,849 C 123,851 135,859 140,866 C 144,873 144,885 144,892 C 144,899 142,907 138,909 C 135,910 128,907 122,902 C 117,898 108,890 105,882 C 103,873 105,859 107,854 C 109,848 112,847 117,849 Z" fill="#FFFFFF" stroke-width="5"/>
<path d="M 114,853 C 117,857 124,870 124,879 C 123,887 117,898 113,903 C 109,909 103,915 99,914 C 95,914 92,907 89,900 C 87,893 84,882 86,873 C 88,865 98,855 103,851 C 107,848 110,848 114,853 Z" fill="#FFFFFF" stroke-width="5"/>
<path d="M 109,854 C 109,860 108,874 103,881 C 98,888 87,893 81,896 C 74,899 66,900 63,898 C 60,895 61,888 63,881 C 65,874 68,862 74,856 C 81,851 95,847 100,847 C 106,846 109,848 109,854 Z" fill="#FFFFFF" stroke-width="5"/>
<path d="M 104,852 C 101,858 92,869 84,872 C 77,875 65,874 58,872 C 50,871 43,868 42,865 C 41,861 46,855 51,850 C 56,845 65,837 74,836 C 82,834 96,839 101,842 C 106,844 107,847 104,852 Z" fill="#FFFFFF" stroke-width="5"/>
<path d="M 101,848 C 96,851 82,856 74,854 C 65,853 56,845 51,840 C 46,835 41,829 42,825 C 43,822 50,819 58,818 C 65,816 77,815 84,818 C 92,821 101,832 104,838 C 107,843 106,846 101,848 Z" fill="#FFFFFF" stroke-width="5"/>
<path d="M 100,843 C 95,843 81,839 74,834 C 68,828 65,816 63,809 C 61,802 60,795 63,792 C 66,790 74,791 81,794 C 87,797 98,802 103,809 C 108,816 109,830 109,836 C 109,842 106,844 100,843 Z" fill="#FFFFFF" stroke-width="5"/>
<path d="M 103,839 C 98,835 88,825 86,817 C 84,808 87,797 89,790 C 92,783 95,776 99,776 C 103,775 109,781 113,787 C 117,792 123,803 124,811 C 124,820 117,833 114,837 C 110,842 107,842 103,839 Z" fill="#FFFFFF" stroke-width="5"/>
<path d="M 107,836 C 105,831 103,817 105,808 C 108,800 117,792 122,788 C 128,783 135,780 138,781 C 142,783 144,791 144,798 C 144,805 144,817 140,824 C 135,831 123,839 117,841 C 112,843 109,842 107,836 Z" fill="#FFFFFF" stroke-width="5"/>
<path d="M 112,836 C 113,831 119,817 126,812 C 132,807 144,805 151,804 C 158,803 166,804 168,807 C 170,810 168,818 164,824 C 160,830 154,840 146,844 C 138,848 124,847 118,846 C 113,845 111,842 112,836 Z" fill="#FFFFFF" stroke-width="5"/>
<path d="M 114,840 C 116,837 124,831 130,830 C 135,829 142,833 146,836 C 150,838 154,842 154,845 C 154,848 150,852 146,854 C 142,857 135,861 130,860 C 124,859 116,853 114,850 C 111,846 111,844 114,840 Z" fill="#FFF8EC" stroke-width="5"/>
<path d="M 116,845 C 120,845 130,845 134,849 C 139,852 141,860 142,865 C 143,869 143,875 141,877 C 139,879 133,879 129,878 C 124,877 116,874 113,870 C 110,866 109,856 109,851 C 110,847 111,845 116,845 Z" fill="#FFF8EC" stroke-width="5"/>
<path d="M 114,850 C 117,852 123,860 124,865 C 125,871 121,878 119,882 C 116,886 112,890 109,890 C 106,890 102,886 100,882 C 97,878 93,871 94,865 C 95,860 102,852 105,850 C 108,847 111,847 114,850 Z" fill="#FFF8EC" stroke-width="5"/>
<path d="M 109,851 C 110,856 109,866 106,870 C 102,874 94,877 90,878 C 85,879 80,879 77,877 C 75,875 75,869 77,865 C 78,860 80,852 84,849 C 89,845 99,845 103,845 C 107,845 109,847 109,851 Z" fill="#FFF8EC" stroke-width="5"/>
<path d="M 105,850 C 102,853 94,859 89,860 C 84,861 77,857 72,854 C 68,852 64,848 64,845 C 64,842 68,838 72,836 C 77,833 84,829 89,830 C 94,831 102,837 105,840 C 107,844 107,846 105,850 Z" fill="#FFF8EC" stroke-width="5"/>
<path d="M 103,845 C 99,845 89,845 84,841 C 80,838 78,830 77,825 C 75,821 75,815 77,813 C 80,811 85,811 90,812 C 94,813 102,816 106,820 C 109,824 110,834 109,839 C 109,843 107,845 103,845 Z" fill="#FFF8EC" stroke-width="5"/>
<path d="M 105,840 C 102,838 95,830 94,825 C 93,819 97,812 100,808 C 102,804 106,800 109,800 C 112,800 116,804 119,808 C 121,812 125,819 124,825 C 123,830 117,838 114,840 C 111,843 108,843 105,840 Z" fill="#FFF8EC" stroke-width="5"/>
<path d="M 109,839 C 109,834 110,824 113,820 C 116,816 124,813 129,812 C 133,811 139,811 141,813 C 143,815 143,821 142,825 C 141,830 139,838 134,841 C 130,845 120,845 116,845 C 111,845 110,843 109,839 Z" fill="#FFF8EC" stroke-width="5"/>
<circle cx="109" cy="845" r="18" fill="#F5C33C"/>
</g>
</g>
</svg>
