<svg xmlns="http://www.w3.org/2000/svg" width="116" height="128" viewBox="0 0 58 64">
  <!-- Baegerglas med 25 g afvejet sukker. Tuden er (5, 5). Bunden er
       (29, 64). -->
  <defs>
    <linearGradient id="glas" x1="0" y1="0" x2="1" y2="0">
      <stop offset="0" stop-color="#d4ebfa" stop-opacity="0.34"/>
      <stop offset="0.25" stop-color="#d4ebfa" stop-opacity="0.07"/>
      <stop offset="1" stop-color="#d4ebfa" stop-opacity="0.26"/>
    </linearGradient>
  </defs>
  <!-- Sukkeret -->
  <path d="M9 40 Q20 33 29 35 Q40 32 49 39 L49 58 Q49 61 46 61 L12 61 Q9 61 9 58 Z" fill="#f7f8fa"/>
  <g fill="#c9d0d8">
    <circle cx="15" cy="45" r="0.9"/><circle cx="22" cy="50" r="0.9"/><circle cx="31" cy="43" r="0.9"/>
    <circle cx="38" cy="52" r="0.9"/><circle cx="44" cy="46" r="0.9"/><circle cx="18" cy="56" r="0.9"/>
    <circle cx="27" cy="57" r="0.9"/><circle cx="35" cy="38" r="0.9"/><circle cx="42" cy="58" r="0.9"/>
  </g>
  <!-- Glasset -->
  <path d="M4 4 L8 8 L8 60 Q8 63 11 63 L47 63 Q50 63 50 60 L50 6 L52 4" fill="url(#glas)" stroke="#dcecf8" stroke-opacity="0.85" stroke-width="1.3" stroke-linejoin="round"/>
  <path d="M4 4 Q28 3 52 4" fill="none" stroke="#e6f2fb" stroke-opacity="0.8" stroke-width="1.2"/>
  <rect x="11" y="10" width="2" height="46" rx="1" fill="#ffffff" fill-opacity="0.22"/>
  <!-- Etiket -->
  <rect x="17" y="14" width="26" height="14" rx="2" fill="#f7f5ee" fill-opacity="0.95"/>
  <text x="30" y="23.6" text-anchor="middle" font-family="Segoe UI, Arial, sans-serif" font-size="6.6" font-weight="800" fill="#3a3f47">25 g</text>
</svg>
