<svg xmlns="http://www.w3.org/2000/svg" viewBox="0 0 1120 440" width="1120" height="440"><title>Gedde, svømmende</title><desc>Sprite til 2D-animation: gedde, svømmende (Esox lucius) set fra siden, ét billede af svømmetaget.</desc>
<g transform="translate(1070,220) scale(-1,1)">
<defs><linearGradient id="hud2" x1="0" y1="-96" x2="0" y2="82" gradientUnits="userSpaceOnUse"><stop offset="0" stop-color="#2E3D1C"/><stop offset=".22" stop-color="#4E6A2A"/><stop offset=".48" stop-color="#7C9243"/><stop offset=".74" stop-color="#C3C078"/><stop offset="1" stop-color="#F7EFD6"/></linearGradient><linearGradient id="ror2" x1="0" y1="-120" x2="0" y2="120" gradientUnits="userSpaceOnUse"><stop offset="0" stop-color="#DC9440"/><stop offset="1" stop-color="#B4632A"/></linearGradient><clipPath id="klip2"><path d="M 0,-19 C 15,-24 55,-26 84,-30 C 113,-35 142,-39 172,-44 C 202,-50 231,-56 262,-61 C 293,-67 324,-74 356,-80 C 388,-85 422,-90 456,-93 C 490,-96 526,-98 560,-99 C 594,-100 628,-100 660,-98 C 692,-96 723,-92 750,-87 C 777,-82 800,-75 820,-68 C 840,-62 857,-54 870,-49 C 883,-44 895,-50 900,-36 C 905,-23 905,18 900,30 C 895,41 883,33 870,35 C 857,37 840,40 820,44 C 800,47 777,51 750,55 C 723,58 692,62 660,64 C 628,67 594,69 560,71 C 526,72 490,74 456,74 C 422,74 388,73 356,70 C 324,68 293,64 262,61 C 231,57 202,52 172,48 C 142,43 113,38 84,34 C 55,29 15,25 0,19 C -15,14 -6,7 -6,0 C -6,-6 -15,-13 0,-19 Z"/></clipPath><clipPath id="ryg2"><path d="M 636,-98 C 638,-102 646,-113 651,-120 C 655,-126 660,-131 664,-136 C 668,-142 672,-146 677,-151 C 681,-155 685,-159 689,-163 C 693,-166 696,-169 700,-172 C 704,-175 708,-178 711,-180 C 715,-182 718,-183 721,-185 C 725,-186 728,-187 731,-187 C 734,-188 737,-188 740,-188 C 743,-187 745,-186 748,-185 C 751,-184 753,-182 756,-180 C 758,-178 760,-176 762,-173 C 765,-170 767,-167 769,-164 C 771,-160 772,-156 774,-151 C 776,-147 778,-142 779,-136 C 781,-131 782,-125 784,-120 C 785,-114 786,-108 788,-101 C 789,-93 790,-81 790,-77 C 790,-73 791,-76 790,-77 C 789,-77 784,-78 781,-79 C 779,-80 776,-81 773,-81 C 770,-82 767,-83 764,-84 C 761,-84 759,-85 756,-86 C 753,-86 750,-87 747,-88 C 744,-88 742,-88 739,-89 C 736,-89 733,-89 730,-90 C 727,-90 724,-90 722,-91 C 719,-91 716,-92 713,-92 C 710,-92 707,-93 704,-93 C 702,-93 699,-93 696,-94 C 693,-94 690,-94 687,-95 C 684,-95 682,-95 679,-96 C 676,-96 673,-96 670,-97 C 667,-97 665,-97 662,-97 C 659,-98 656,-98 653,-98 C 650,-98 647,-98 645,-98 C 642,-98 637,-98 636,-98 C 635,-98 634,-95 636,-98 Z"/></clipPath><clipPath id="gat2"><path d="M 660,64 C 662,67 669,77 673,83 C 677,88 681,93 685,97 C 689,101 693,106 697,109 C 700,113 704,117 708,120 C 711,123 715,126 718,129 C 721,131 725,133 728,135 C 731,137 734,139 737,140 C 740,141 743,142 746,143 C 749,143 751,143 754,143 C 757,143 759,142 762,141 C 764,140 766,139 768,137 C 771,136 773,133 775,131 C 777,128 779,125 780,122 C 782,119 784,115 785,111 C 787,107 789,103 790,98 C 791,94 793,89 794,84 C 795,79 797,74 798,67 C 799,61 800,50 800,47 C 800,43 801,46 800,47 C 799,47 795,47 792,48 C 790,48 787,49 784,49 C 782,49 779,50 777,50 C 774,51 771,51 769,52 C 766,52 764,52 761,53 C 759,53 756,54 753,54 C 751,55 748,55 746,55 C 743,55 740,56 738,56 C 735,56 733,56 730,57 C 727,57 725,57 722,57 C 720,58 717,58 714,58 C 712,58 709,59 707,59 C 704,59 701,60 699,60 C 696,60 694,60 691,61 C 689,61 686,61 683,62 C 681,62 678,62 676,63 C 673,63 670,63 668,63 C 665,64 661,64 660,64 C 659,65 658,61 660,64 Z"/></clipPath><clipPath id="bug2"><path d="M 470,73 C 472,76 477,82 481,86 C 484,91 488,94 491,98 C 495,102 498,106 501,109 C 504,112 507,116 510,119 C 513,122 516,125 519,127 C 522,130 524,133 527,135 C 530,137 532,139 534,140 C 536,142 539,143 540,144 C 542,145 544,146 546,147 C 547,147 549,147 550,147 C 551,146 552,146 553,145 C 554,144 555,142 556,140 C 556,139 556,137 557,134 C 557,132 557,129 557,126 C 557,123 556,120 556,116 C 555,112 555,108 554,104 C 553,99 552,95 551,90 C 550,84 547,74 546,71 C 545,68 547,71 546,71 C 545,71 543,71 542,71 C 540,71 539,71 538,71 C 536,72 535,72 533,72 C 532,72 531,72 529,72 C 528,72 526,72 525,72 C 523,72 522,72 521,72 C 519,72 518,72 516,72 C 515,72 514,72 512,72 C 511,72 509,72 508,72 C 507,72 505,72 504,72 C 502,72 501,73 500,73 C 498,73 497,73 495,73 C 494,73 493,73 491,73 C 490,73 488,73 487,73 C 485,73 484,73 483,73 C 481,73 480,73 478,73 C 477,73 476,73 474,73 C 473,73 471,73 470,73 C 469,73 468,71 470,73 Z"/></clipPath><clipPath id="hale2"><path d="M 848,-48 C 860,-67 893,-80 918,-88 C 943,-96 991,-105 998,-96 C 1005,-87 970,-51 960,-35 C 950,-19 936,-12 936,0 C 936,13 950,23 960,41 C 970,59 1005,103 998,110 C 991,117 943,96 918,82 C 893,69 860,50 848,28 C 836,7 836,-28 848,-48 Z"/></clipPath><clipPath id="bryst2"><path d="M 333,28 L 356,56 L 380,106 L 384,159 L 342,146 L 319,104 L 314,64 Z"/></clipPath></defs>
<g fill="none" stroke="#17211F" stroke-width="7" stroke-linejoin="round" stroke-linecap="round">
<path d="M 636,-98 C 638,-102 646,-113 651,-120 C 655,-126 660,-131 664,-136 C 668,-142 672,-146 677,-151 C 681,-155 685,-159 689,-163 C 693,-166 696,-169 700,-172 C 704,-175 708,-178 711,-180 C 715,-182 718,-183 721,-185 C 725,-186 728,-187 731,-187 C 734,-188 737,-188 740,-188 C 743,-187 745,-186 748,-185 C 751,-184 753,-182 756,-180 C 758,-178 760,-176 762,-173 C 765,-170 767,-167 769,-164 C 771,-160 772,-156 774,-151 C 776,-147 778,-142 779,-136 C 781,-131 782,-125 784,-120 C 785,-114 786,-108 788,-101 C 789,-93 790,-81 790,-77 C 790,-73 791,-76 790,-77 C 789,-77 784,-78 781,-79 C 779,-80 776,-81 773,-81 C 770,-82 767,-83 764,-84 C 761,-84 759,-85 756,-86 C 753,-86 750,-87 747,-88 C 744,-88 742,-88 739,-89 C 736,-89 733,-89 730,-90 C 727,-90 724,-90 722,-91 C 719,-91 716,-92 713,-92 C 710,-92 707,-93 704,-93 C 702,-93 699,-93 696,-94 C 693,-94 690,-94 687,-95 C 684,-95 682,-95 679,-96 C 676,-96 673,-96 670,-97 C 667,-97 665,-97 662,-97 C 659,-98 656,-98 653,-98 C 650,-98 647,-98 645,-98 C 642,-98 637,-98 636,-98 C 635,-98 634,-95 636,-98 Z" fill="#7E8C46"/>
<g clip-path="url(#ryg2)"><path d="M 650,-101 L 658,-127 M 664,-103 L 678,-147 M 678,-103 L 697,-162 M 692,-103 L 714,-172 M 706,-102 L 730,-176 M 720,-101 L 744,-174 M 734,-98 L 756,-167 M 748,-95 L 767,-154 M 762,-90 L 776,-134 M 776,-84 L 784,-109" stroke-width="4" opacity=".45"/></g>
<path d="M 660,64 C 662,67 669,77 673,83 C 677,88 681,93 685,97 C 689,101 693,106 697,109 C 700,113 704,117 708,120 C 711,123 715,126 718,129 C 721,131 725,133 728,135 C 731,137 734,139 737,140 C 740,141 743,142 746,143 C 749,143 751,143 754,143 C 757,143 759,142 762,141 C 764,140 766,139 768,137 C 771,136 773,133 775,131 C 777,128 779,125 780,122 C 782,119 784,115 785,111 C 787,107 789,103 790,98 C 791,94 793,89 794,84 C 795,79 797,74 798,67 C 799,61 800,50 800,47 C 800,43 801,46 800,47 C 799,47 795,47 792,48 C 790,48 787,49 784,49 C 782,49 779,50 777,50 C 774,51 771,51 769,52 C 766,52 764,52 761,53 C 759,53 756,54 753,54 C 751,55 748,55 746,55 C 743,55 740,56 738,56 C 735,56 733,56 730,57 C 727,57 725,57 722,57 C 720,58 717,58 714,58 C 712,58 709,59 707,59 C 704,59 701,60 699,60 C 696,60 694,60 691,61 C 689,61 686,61 683,62 C 681,62 678,62 676,63 C 673,63 670,63 668,63 C 665,64 661,64 660,64 C 659,65 658,61 660,64 Z" fill="url(#ror2)"/>
<g clip-path="url(#gat2)"><path d="M 674,66 L 682,91 M 688,67 L 702,109 M 702,67 L 720,123 M 716,66 L 737,131 M 730,65 L 752,133 M 744,64 L 765,128 M 758,61 L 776,117 M 772,56 L 786,100 M 786,52 L 794,77" stroke-width="4" opacity=".45"/></g>
<path d="M 470,73 C 472,76 477,82 481,86 C 484,91 488,94 491,98 C 495,102 498,106 501,109 C 504,112 507,116 510,119 C 513,122 516,125 519,127 C 522,130 524,133 527,135 C 530,137 532,139 534,140 C 536,142 539,143 540,144 C 542,145 544,146 546,147 C 547,147 549,147 550,147 C 551,146 552,146 553,145 C 554,144 555,142 556,140 C 556,139 556,137 557,134 C 557,132 557,129 557,126 C 557,123 556,120 556,116 C 555,112 555,108 554,104 C 553,99 552,95 551,90 C 550,84 547,74 546,71 C 545,68 547,71 546,71 C 545,71 543,71 542,71 C 540,71 539,71 538,71 C 536,72 535,72 533,72 C 532,72 531,72 529,72 C 528,72 526,72 525,72 C 523,72 522,72 521,72 C 519,72 518,72 516,72 C 515,72 514,72 512,72 C 511,72 509,72 508,72 C 507,72 505,72 504,72 C 502,72 501,73 500,73 C 498,73 497,73 495,73 C 494,73 493,73 491,73 C 490,73 488,73 487,73 C 485,73 484,73 483,73 C 481,73 480,73 478,73 C 477,73 476,73 474,73 C 473,73 471,73 470,73 C 469,73 468,71 470,73 Z" fill="url(#ror2)"/>
<g clip-path="url(#bug2)"><path d="M 481,76 L 495,101 M 492,78 L 517,122 M 503,80 L 535,135 M 513,80 L 547,137 M 524,78 L 553,128 M 535,76 L 553,106" stroke-width="4" opacity=".45"/></g>
<path d="M 848,-48 C 860,-67 893,-80 918,-88 C 943,-96 991,-105 998,-96 C 1005,-87 970,-51 960,-35 C 950,-19 936,-12 936,0 C 936,13 950,23 960,41 C 970,59 1005,103 998,110 C 991,117 943,96 918,82 C 893,69 860,50 848,28 C 836,7 836,-28 848,-48 Z" fill="url(#ror2)"/>
<g clip-path="url(#hale2)"><path d="M 856,-45 L 965,-86 M 856,-35 L 950,-65 M 856,-26 L 935,-45 M 856,-17 L 920,-24 M 856,-7 L 905,-3 M 856,2 L 920,21 M 856,12 L 935,45 M 856,21 L 950,69 M 856,30 L 965,93" stroke-width="4" opacity=".4"/></g>
<path d="M 0,-19 C 15,-24 55,-26 84,-30 C 113,-35 142,-39 172,-44 C 202,-50 231,-56 262,-61 C 293,-67 324,-74 356,-80 C 388,-85 422,-90 456,-93 C 490,-96 526,-98 560,-99 C 594,-100 628,-100 660,-98 C 692,-96 723,-92 750,-87 C 777,-82 800,-75 820,-68 C 840,-62 857,-54 870,-49 C 883,-44 895,-50 900,-36 C 905,-23 905,18 900,30 C 895,41 883,33 870,35 C 857,37 840,40 820,44 C 800,47 777,51 750,55 C 723,58 692,62 660,64 C 628,67 594,69 560,71 C 526,72 490,74 456,74 C 422,74 388,73 356,70 C 324,68 293,64 262,61 C 231,57 202,52 172,48 C 142,43 113,38 84,34 C 55,29 15,25 0,19 C -15,14 -6,7 -6,0 C -6,-6 -15,-13 0,-19 Z" fill="url(#hud2)"/>
<g clip-path="url(#klip2)" stroke="none">
<ellipse cx="352" cy="-53" rx="12" ry="19" fill="#F4EAB0" opacity=".8" transform="rotate(6 352 -53)"/>
<ellipse cx="435" cy="-56" rx="12" ry="18" fill="#F4EAB0" opacity=".8" transform="rotate(4 435 -56)"/>
<ellipse cx="521" cy="-58" rx="12" ry="19" fill="#F4EAB0" opacity=".8" transform="rotate(8 521 -58)"/>
<ellipse cx="601" cy="-64" rx="12" ry="18" fill="#F4EAB0" opacity=".8" transform="rotate(2 601 -64)"/>
<ellipse cx="691" cy="-61" rx="12" ry="20" fill="#F4EAB0" opacity=".8" transform="rotate(11 691 -61)"/>
<ellipse cx="767" cy="-66" rx="12" ry="17" fill="#F4EAB0" opacity=".8" transform="rotate(0 767 -66)"/>
<ellipse cx="380" cy="-26" rx="12" ry="17" fill="#F4EAB0" opacity=".8" transform="rotate(-1 380 -26)"/>
<ellipse cx="474" cy="-22" rx="12" ry="20" fill="#F4EAB0" opacity=".8" transform="rotate(12 474 -22)"/>
<ellipse cx="550" cy="-32" rx="12" ry="17" fill="#F4EAB0" opacity=".8" transform="rotate(0 550 -32)"/>
<ellipse cx="640" cy="-28" rx="12" ry="19" fill="#F4EAB0" opacity=".8" transform="rotate(9 640 -28)"/>
<ellipse cx="719" cy="-33" rx="12" ry="18" fill="#F4EAB0" opacity=".8" transform="rotate(3 719 -33)"/>
<ellipse cx="807" cy="-28" rx="12" ry="19" fill="#F4EAB0" opacity=".8" transform="rotate(7 807 -28)"/>
<ellipse cx="343" cy="6" rx="12" ry="16" fill="#F4EAB0" opacity=".8" transform="rotate(-5 343 6)"/>
<ellipse cx="444" cy="15" rx="12" ry="21" fill="#F4EAB0" opacity=".8" transform="rotate(17 444 15)"/>
<ellipse cx="511" cy="-0" rx="12" ry="16" fill="#F4EAB0" opacity=".8" transform="rotate(-4 511 -0)"/>
<ellipse cx="611" cy="8" rx="12" ry="21" fill="#F4EAB0" opacity=".8" transform="rotate(16 611 8)"/>
<ellipse cx="680" cy="-4" rx="12" ry="16" fill="#F4EAB0" opacity=".8" transform="rotate(-3 680 -4)"/>
<ellipse cx="778" cy="8" rx="12" ry="21" fill="#F4EAB0" opacity=".8" transform="rotate(14 778 8)"/>
<ellipse cx="377" cy="35" rx="12" ry="16" fill="#F4EAB0" opacity=".8" transform="rotate(-4 377 35)"/>
<ellipse cx="478" cy="44" rx="12" ry="21" fill="#F4EAB0" opacity=".8" transform="rotate(17 478 44)"/>
<ellipse cx="545" cy="28" rx="12" ry="16" fill="#F4EAB0" opacity=".8" transform="rotate(-5 545 28)"/>
<ellipse cx="646" cy="39" rx="12" ry="21" fill="#F4EAB0" opacity=".8" transform="rotate(17 646 39)"/>
<ellipse cx="713" cy="25" rx="12" ry="16" fill="#F4EAB0" opacity=".8" transform="rotate(-5 713 25)"/>
<ellipse cx="814" cy="41" rx="12" ry="21" fill="#F4EAB0" opacity=".8" transform="rotate(17 814 41)"/>
</g>
<path d="M 0,-19 C 15,-24 55,-26 84,-30 C 113,-35 142,-39 172,-44 C 202,-50 231,-56 262,-61 C 293,-67 324,-74 356,-80 C 388,-85 422,-90 456,-93 C 490,-96 526,-98 560,-99 C 594,-100 628,-100 660,-98 C 692,-96 723,-92 750,-87 C 777,-82 800,-75 820,-68 C 840,-62 857,-54 870,-49 C 883,-44 895,-50 900,-36 C 905,-23 905,18 900,30 C 895,41 883,33 870,35 C 857,37 840,40 820,44 C 800,47 777,51 750,55 C 723,58 692,62 660,64 C 628,67 594,69 560,71 C 526,72 490,74 456,74 C 422,74 388,73 356,70 C 324,68 293,64 262,61 C 231,57 202,52 172,48 C 142,43 113,38 84,34 C 55,29 15,25 0,19 C -15,14 -6,7 -6,0 C -6,-6 -15,-13 0,-19 Z"/>
<path d="M 296,-72 C 302,-65 327,-43 334,-27 C 341,-11 341,9 338,23 C 335,37 326,51 318,59 C 310,68 296,73 292,76" stroke-width="6" opacity=".85"/>
<path d="M 244,-61 C 249,-53 269,-29 272,-12 C 275,6 264,35 262,45" stroke-width="4" opacity=".45"/>
<path d="M 340,-29 C 363,-29 433,-29 480,-28 C 527,-27 573,-26 620,-25 C 667,-23 737,-20 760,-19" stroke-width="3" opacity=".28" stroke-dasharray="14 14"/>
<path d="M -6,5 C 8,7 51,12 80,16 C 109,19 143,23 170,26 C 197,28 225,32 240,31 C 255,30 257,21 260,19" stroke-width="6"/>
<circle cx="192" cy="-43" r="21" fill="#E8C24A"/>
<circle cx="189" cy="-42" r="10" fill="#17211F" stroke="none"/>
<circle cx="184" cy="-49" r="4" fill="#FFF9EE" stroke="none" opacity=".9"/>
<path d="M 333,28 L 356,56 L 380,106 L 384,159 L 342,146 L 319,104 L 314,64 Z" fill="#C9C078" opacity=".9"/>
<g clip-path="url(#bryst2)"><path d="M 326,52 L 348,57 M 326,52 L 357,73 M 326,52 L 366,89 M 326,52 L 375,105 M 326,52 L 383,121 M 326,52 L 392,137" stroke-width="4" opacity=".55"/></g>
</g>
</g>
</svg>
