<svg xmlns="http://www.w3.org/2000/svg" viewBox="0 0 1120 440" width="1120" height="440"><title>Gedde, svømmende</title><desc>Sprite til 2D-animation: gedde, svømmende (Esox lucius) set fra siden, ét billede af svømmetaget.</desc>
<g transform="translate(1070,220) scale(-1,1)">
<defs><linearGradient id="hud6" x1="0" y1="-96" x2="0" y2="82" gradientUnits="userSpaceOnUse"><stop offset="0" stop-color="#2E3D1C"/><stop offset=".22" stop-color="#4E6A2A"/><stop offset=".48" stop-color="#7C9243"/><stop offset=".74" stop-color="#C3C078"/><stop offset="1" stop-color="#F7EFD6"/></linearGradient><linearGradient id="ror6" x1="0" y1="-120" x2="0" y2="120" gradientUnits="userSpaceOnUse"><stop offset="0" stop-color="#DC9440"/><stop offset="1" stop-color="#B4632A"/></linearGradient><clipPath id="klip6"><path d="M 0,-25 C 15,-31 55,-33 84,-38 C 113,-42 142,-47 172,-52 C 202,-56 231,-62 262,-67 C 293,-71 324,-77 356,-80 C 388,-84 422,-86 456,-87 C 490,-88 526,-86 560,-85 C 594,-83 628,-81 660,-78 C 692,-76 723,-73 750,-69 C 777,-65 800,-60 820,-56 C 840,-51 857,-46 870,-43 C 883,-40 895,-48 900,-36 C 905,-23 905,18 900,30 C 895,43 883,37 870,41 C 857,45 840,51 820,56 C 800,62 777,69 750,73 C 723,78 692,82 660,84 C 628,86 594,86 560,85 C 526,85 490,83 456,80 C 422,78 388,74 356,70 C 324,65 293,60 262,55 C 231,51 202,45 172,40 C 142,36 113,31 84,26 C 55,22 15,18 0,13 C -15,7 -6,-0 -6,-6 C -6,-13 -15,-20 0,-25 Z"/></clipPath><clipPath id="ryg6"><path d="M 636,-80 C 638,-83 646,-95 651,-101 C 655,-107 660,-112 664,-117 C 668,-122 672,-127 677,-131 C 681,-136 685,-139 689,-143 C 693,-147 696,-150 700,-153 C 704,-156 708,-158 711,-160 C 715,-162 718,-164 721,-165 C 725,-167 728,-168 731,-168 C 734,-169 737,-169 740,-169 C 743,-168 745,-168 748,-167 C 751,-166 753,-164 756,-162 C 758,-160 760,-158 762,-155 C 765,-153 767,-150 769,-146 C 771,-143 772,-139 774,-134 C 776,-130 778,-125 779,-120 C 781,-114 782,-109 784,-103 C 785,-97 786,-91 788,-84 C 789,-77 790,-65 790,-61 C 790,-57 791,-61 790,-61 C 789,-61 784,-62 781,-63 C 779,-63 776,-64 773,-64 C 770,-65 767,-65 764,-66 C 761,-66 759,-67 756,-68 C 753,-68 750,-69 747,-69 C 744,-69 742,-70 739,-70 C 736,-70 733,-70 730,-71 C 727,-71 724,-71 722,-71 C 719,-72 716,-72 713,-72 C 710,-73 707,-73 704,-73 C 702,-74 699,-74 696,-74 C 693,-75 690,-75 687,-75 C 684,-75 682,-76 679,-76 C 676,-76 673,-77 670,-77 C 667,-78 665,-78 662,-78 C 659,-78 656,-79 653,-79 C 650,-79 647,-79 645,-79 C 642,-79 637,-80 636,-80 C 635,-80 634,-76 636,-80 Z"/></clipPath><clipPath id="gat6"><path d="M 660,84 C 662,87 669,97 673,102 C 677,108 681,112 685,117 C 689,121 693,125 697,129 C 700,133 704,136 708,139 C 711,143 715,145 718,148 C 721,150 725,153 728,155 C 731,156 734,158 737,159 C 740,160 743,161 746,161 C 749,162 751,162 754,161 C 757,161 759,160 762,159 C 764,158 766,157 768,155 C 771,153 773,151 775,148 C 777,145 779,142 780,139 C 782,135 784,131 785,127 C 787,123 789,119 790,114 C 791,110 793,105 794,99 C 795,94 797,89 798,83 C 799,76 800,65 800,61 C 800,58 801,61 800,61 C 799,62 795,63 792,63 C 790,64 787,65 784,65 C 782,66 779,66 777,67 C 774,68 771,68 769,69 C 766,70 764,70 761,71 C 759,71 756,72 753,72 C 751,73 748,73 746,74 C 743,74 740,74 738,75 C 735,75 733,75 730,76 C 727,76 725,76 722,77 C 720,77 717,77 714,78 C 712,78 709,78 707,79 C 704,79 701,79 699,79 C 696,80 694,80 691,80 C 689,81 686,81 683,81 C 681,81 678,82 676,82 C 673,82 670,83 668,83 C 665,83 661,83 660,84 C 659,84 658,80 660,84 Z"/></clipPath><clipPath id="bug6"><path d="M 470,81 C 472,83 477,90 481,95 C 484,99 488,103 491,107 C 495,111 498,115 501,119 C 504,123 507,126 510,129 C 513,133 516,136 519,139 C 522,142 524,144 527,147 C 530,149 532,151 534,153 C 536,155 539,156 540,157 C 542,158 544,159 546,160 C 547,160 549,160 550,160 C 551,160 552,159 553,158 C 554,157 555,156 556,154 C 556,153 556,151 557,148 C 557,146 557,143 557,140 C 557,137 556,134 556,130 C 555,126 555,122 554,118 C 553,113 552,109 551,103 C 550,98 547,88 546,84 C 545,81 547,85 546,84 C 545,84 543,84 542,84 C 540,84 539,84 538,84 C 536,84 535,84 533,84 C 532,84 531,84 529,84 C 528,84 526,84 525,84 C 523,83 522,83 521,83 C 519,83 518,83 516,83 C 515,83 514,83 512,83 C 511,83 509,83 508,83 C 507,83 505,83 504,82 C 502,82 501,82 500,82 C 498,82 497,82 495,82 C 494,82 493,82 491,82 C 490,82 488,82 487,82 C 485,82 484,82 483,81 C 481,81 480,81 478,81 C 477,81 476,81 474,81 C 473,81 471,81 470,81 C 469,81 468,79 470,81 Z"/></clipPath><clipPath id="hale6"><path d="M 848,-38 C 860,-60 893,-77 918,-90 C 943,-104 991,-125 998,-118 C 1005,-111 970,-66 960,-47 C 950,-28 936,-19 936,-6 C 936,6 950,13 960,29 C 970,45 1005,80 998,88 C 991,97 943,88 918,80 C 893,71 860,57 848,38 C 836,18 836,-17 848,-38 Z"/></clipPath><clipPath id="bryst6"><path d="M 317,23 L 353,27 L 404,46 L 443,83 L 405,102 L 358,88 L 328,62 Z"/></clipPath></defs>
<g fill="none" stroke="#17211F" stroke-width="7" stroke-linejoin="round" stroke-linecap="round">
<path d="M 636,-80 C 638,-83 646,-95 651,-101 C 655,-107 660,-112 664,-117 C 668,-122 672,-127 677,-131 C 681,-136 685,-139 689,-143 C 693,-147 696,-150 700,-153 C 704,-156 708,-158 711,-160 C 715,-162 718,-164 721,-165 C 725,-167 728,-168 731,-168 C 734,-169 737,-169 740,-169 C 743,-168 745,-168 748,-167 C 751,-166 753,-164 756,-162 C 758,-160 760,-158 762,-155 C 765,-153 767,-150 769,-146 C 771,-143 772,-139 774,-134 C 776,-130 778,-125 779,-120 C 781,-114 782,-109 784,-103 C 785,-97 786,-91 788,-84 C 789,-77 790,-65 790,-61 C 790,-57 791,-61 790,-61 C 789,-61 784,-62 781,-63 C 779,-63 776,-64 773,-64 C 770,-65 767,-65 764,-66 C 761,-66 759,-67 756,-68 C 753,-68 750,-69 747,-69 C 744,-69 742,-70 739,-70 C 736,-70 733,-70 730,-71 C 727,-71 724,-71 722,-71 C 719,-72 716,-72 713,-72 C 710,-73 707,-73 704,-73 C 702,-74 699,-74 696,-74 C 693,-75 690,-75 687,-75 C 684,-75 682,-76 679,-76 C 676,-76 673,-77 670,-77 C 667,-78 665,-78 662,-78 C 659,-78 656,-79 653,-79 C 650,-79 647,-79 645,-79 C 642,-79 637,-80 636,-80 C 635,-80 634,-76 636,-80 Z" fill="#7E8C46"/>
<g clip-path="url(#ryg6)"><path d="M 650,-82 L 658,-108 M 664,-84 L 678,-128 M 678,-84 L 697,-143 M 692,-83 L 714,-153 M 706,-83 L 730,-157 M 720,-81 L 744,-156 M 734,-79 L 756,-149 M 748,-77 L 767,-136 M 762,-72 L 776,-117 M 776,-67 L 784,-93" stroke-width="4" opacity=".45"/></g>
<path d="M 660,84 C 662,87 669,97 673,102 C 677,108 681,112 685,117 C 689,121 693,125 697,129 C 700,133 704,136 708,139 C 711,143 715,145 718,148 C 721,150 725,153 728,155 C 731,156 734,158 737,159 C 740,160 743,161 746,161 C 749,162 751,162 754,161 C 757,161 759,160 762,159 C 764,158 766,157 768,155 C 771,153 773,151 775,148 C 777,145 779,142 780,139 C 782,135 784,131 785,127 C 787,123 789,119 790,114 C 791,110 793,105 794,99 C 795,94 797,89 798,83 C 799,76 800,65 800,61 C 800,58 801,61 800,61 C 799,62 795,63 792,63 C 790,64 787,65 784,65 C 782,66 779,66 777,67 C 774,68 771,68 769,69 C 766,70 764,70 761,71 C 759,71 756,72 753,72 C 751,73 748,73 746,74 C 743,74 740,74 738,75 C 735,75 733,75 730,76 C 727,76 725,76 722,77 C 720,77 717,77 714,78 C 712,78 709,78 707,79 C 704,79 701,79 699,79 C 696,80 694,80 691,80 C 689,81 686,81 683,81 C 681,81 678,82 676,82 C 673,82 670,83 668,83 C 665,83 661,83 660,84 C 659,84 658,80 660,84 Z" fill="url(#ror6)"/>
<g clip-path="url(#gat6)"><path d="M 674,85 L 682,110 M 688,86 L 702,129 M 702,86 L 720,142 M 716,86 L 737,150 M 730,84 L 752,151 M 744,82 L 765,146 M 758,79 L 776,134 M 772,74 L 786,116 M 786,68 L 794,92" stroke-width="4" opacity=".45"/></g>
<path d="M 470,81 C 472,83 477,90 481,95 C 484,99 488,103 491,107 C 495,111 498,115 501,119 C 504,123 507,126 510,129 C 513,133 516,136 519,139 C 522,142 524,144 527,147 C 530,149 532,151 534,153 C 536,155 539,156 540,157 C 542,158 544,159 546,160 C 547,160 549,160 550,160 C 551,160 552,159 553,158 C 554,157 555,156 556,154 C 556,153 556,151 557,148 C 557,146 557,143 557,140 C 557,137 556,134 556,130 C 555,126 555,122 554,118 C 553,113 552,109 551,103 C 550,98 547,88 546,84 C 545,81 547,85 546,84 C 545,84 543,84 542,84 C 540,84 539,84 538,84 C 536,84 535,84 533,84 C 532,84 531,84 529,84 C 528,84 526,84 525,84 C 523,83 522,83 521,83 C 519,83 518,83 516,83 C 515,83 514,83 512,83 C 511,83 509,83 508,83 C 507,83 505,83 504,82 C 502,82 501,82 500,82 C 498,82 497,82 495,82 C 494,82 493,82 491,82 C 490,82 488,82 487,82 C 485,82 484,82 483,81 C 481,81 480,81 478,81 C 477,81 476,81 474,81 C 473,81 471,81 470,81 C 469,81 468,79 470,81 Z" fill="url(#ror6)"/>
<g clip-path="url(#bug6)"><path d="M 481,85 L 495,110 M 492,88 L 517,133 M 503,90 L 535,147 M 513,91 L 547,151 M 524,90 L 553,141 M 535,88 L 553,120" stroke-width="4" opacity=".45"/></g>
<path d="M 848,-38 C 860,-60 893,-77 918,-90 C 943,-104 991,-125 998,-118 C 1005,-111 970,-66 960,-47 C 950,-28 936,-19 936,-6 C 936,6 950,13 960,29 C 970,45 1005,80 998,88 C 991,97 943,88 918,80 C 893,71 860,57 848,38 C 836,18 836,-17 848,-38 Z" fill="url(#ror6)"/>
<g clip-path="url(#hale6)"><path d="M 856,-36 L 965,-99 M 856,-27 L 950,-75 M 856,-18 L 935,-51 M 856,-8 L 920,-27 M 856,1 L 905,-3 M 856,11 L 920,18 M 856,20 L 935,39 M 856,29 L 950,59 M 856,39 L 965,80" stroke-width="4" opacity=".4"/></g>
<path d="M 0,-25 C 15,-31 55,-33 84,-38 C 113,-42 142,-47 172,-52 C 202,-56 231,-62 262,-67 C 293,-71 324,-77 356,-80 C 388,-84 422,-86 456,-87 C 490,-88 526,-86 560,-85 C 594,-83 628,-81 660,-78 C 692,-76 723,-73 750,-69 C 777,-65 800,-60 820,-56 C 840,-51 857,-46 870,-43 C 883,-40 895,-48 900,-36 C 905,-23 905,18 900,30 C 895,43 883,37 870,41 C 857,45 840,51 820,56 C 800,62 777,69 750,73 C 723,78 692,82 660,84 C 628,86 594,86 560,85 C 526,85 490,83 456,80 C 422,78 388,74 356,70 C 324,65 293,60 262,55 C 231,51 202,45 172,40 C 142,36 113,31 84,26 C 55,22 15,18 0,13 C -15,7 -6,-0 -6,-6 C -6,-13 -15,-20 0,-25 Z" fill="url(#hud6)"/>
<g clip-path="url(#klip6)" stroke="none">
<ellipse cx="352" cy="-55" rx="12" ry="19" fill="#F4EAB0" opacity=".8" transform="rotate(6 352 -55)"/>
<ellipse cx="435" cy="-52" rx="12" ry="18" fill="#F4EAB0" opacity=".8" transform="rotate(4 435 -52)"/>
<ellipse cx="521" cy="-46" rx="12" ry="19" fill="#F4EAB0" opacity=".8" transform="rotate(8 521 -46)"/>
<ellipse cx="601" cy="-48" rx="12" ry="18" fill="#F4EAB0" opacity=".8" transform="rotate(2 601 -48)"/>
<ellipse cx="691" cy="-41" rx="12" ry="20" fill="#F4EAB0" opacity=".8" transform="rotate(11 691 -41)"/>
<ellipse cx="767" cy="-48" rx="12" ry="17" fill="#F4EAB0" opacity=".8" transform="rotate(0 767 -48)"/>
<ellipse cx="380" cy="-26" rx="12" ry="17" fill="#F4EAB0" opacity=".8" transform="rotate(-1 380 -26)"/>
<ellipse cx="474" cy="-14" rx="12" ry="20" fill="#F4EAB0" opacity=".8" transform="rotate(12 474 -14)"/>
<ellipse cx="550" cy="-18" rx="12" ry="17" fill="#F4EAB0" opacity=".8" transform="rotate(0 550 -18)"/>
<ellipse cx="640" cy="-10" rx="12" ry="19" fill="#F4EAB0" opacity=".8" transform="rotate(9 640 -10)"/>
<ellipse cx="719" cy="-13" rx="12" ry="18" fill="#F4EAB0" opacity=".8" transform="rotate(3 719 -13)"/>
<ellipse cx="807" cy="-14" rx="12" ry="19" fill="#F4EAB0" opacity=".8" transform="rotate(7 807 -14)"/>
<ellipse cx="343" cy="4" rx="12" ry="16" fill="#F4EAB0" opacity=".8" transform="rotate(-5 343 4)"/>
<ellipse cx="444" cy="21" rx="12" ry="21" fill="#F4EAB0" opacity=".8" transform="rotate(17 444 21)"/>
<ellipse cx="511" cy="10" rx="12" ry="16" fill="#F4EAB0" opacity=".8" transform="rotate(-4 511 10)"/>
<ellipse cx="611" cy="26" rx="12" ry="21" fill="#F4EAB0" opacity=".8" transform="rotate(16 611 26)"/>
<ellipse cx="680" cy="16" rx="12" ry="16" fill="#F4EAB0" opacity=".8" transform="rotate(-3 680 16)"/>
<ellipse cx="778" cy="24" rx="12" ry="21" fill="#F4EAB0" opacity=".8" transform="rotate(14 778 24)"/>
<ellipse cx="377" cy="35" rx="12" ry="16" fill="#F4EAB0" opacity=".8" transform="rotate(-4 377 35)"/>
<ellipse cx="478" cy="52" rx="12" ry="21" fill="#F4EAB0" opacity=".8" transform="rotate(17 478 52)"/>
<ellipse cx="545" cy="42" rx="12" ry="16" fill="#F4EAB0" opacity=".8" transform="rotate(-5 545 42)"/>
<ellipse cx="646" cy="57" rx="12" ry="21" fill="#F4EAB0" opacity=".8" transform="rotate(17 646 57)"/>
<ellipse cx="713" cy="45" rx="12" ry="16" fill="#F4EAB0" opacity=".8" transform="rotate(-5 713 45)"/>
<ellipse cx="814" cy="55" rx="12" ry="21" fill="#F4EAB0" opacity=".8" transform="rotate(17 814 55)"/>
</g>
<path d="M 0,-25 C 15,-31 55,-33 84,-38 C 113,-42 142,-47 172,-52 C 202,-56 231,-62 262,-67 C 293,-71 324,-77 356,-80 C 388,-84 422,-86 456,-87 C 490,-88 526,-86 560,-85 C 594,-83 628,-81 660,-78 C 692,-76 723,-73 750,-69 C 777,-65 800,-60 820,-56 C 840,-51 857,-46 870,-43 C 883,-40 895,-48 900,-36 C 905,-23 905,18 900,30 C 895,43 883,37 870,41 C 857,45 840,51 820,56 C 800,62 777,69 750,73 C 723,78 692,82 660,84 C 628,86 594,86 560,85 C 526,85 490,83 456,80 C 422,78 388,74 356,70 C 324,65 293,60 262,55 C 231,51 202,45 172,40 C 142,36 113,31 84,26 C 55,22 15,18 0,13 C -15,7 -6,-0 -6,-6 C -6,-13 -15,-20 0,-25 Z"/>
<path d="M 296,-76 C 302,-68 327,-45 334,-29 C 341,-13 341,7 338,21 C 335,35 326,48 318,57 C 310,65 296,69 292,72" stroke-width="6" opacity=".85"/>
<path d="M 244,-67 C 249,-58 269,-34 272,-16 C 275,1 264,30 262,39" stroke-width="4" opacity=".45"/>
<path d="M 340,-31 C 363,-29 433,-24 480,-20 C 527,-16 573,-10 620,-7 C 667,-4 737,-2 760,-1" stroke-width="3" opacity=".28" stroke-dasharray="14 14"/>
<path d="M -6,-1 C 8,0 51,5 80,8 C 109,12 143,16 170,18 C 197,21 225,26 240,25 C 255,24 257,15 260,13" stroke-width="6"/>
<circle cx="192" cy="-49" r="21" fill="#E8C24A"/>
<circle cx="189" cy="-48" r="10" fill="#17211F" stroke="none"/>
<circle cx="184" cy="-56" r="4" fill="#FFF9EE" stroke="none" opacity=".9"/>
<path d="M 317,23 L 353,27 L 404,46 L 443,83 L 405,102 L 358,88 L 328,62 Z" fill="#C9C078" opacity=".9"/>
<g clip-path="url(#bryst6)"><path d="M 328,45 L 348,34 M 328,45 L 365,39 M 328,45 L 383,45 M 328,45 L 400,50 M 328,45 L 417,55 M 328,45 L 435,61" stroke-width="4" opacity=".55"/></g>
</g>
</g>
</svg>
